<svg width="776" height="570" viewBox="0 0 776 570" fill="none" xmlns="http://www.w3.org/2000/svg">
<path d="M-196.119 1009.4C-194.433 1056.5 -189.379 1090.17 -179.728 1118.58C-140.995 1226.74 1.22562 1302.53 182.598 1311.66C273.3 1315.46 357.63 1298.67 426.466 1263.11C486.434 1231.55 543.477 1180.14 605.984 1101.31C648.649 1046.85 685.408 984.01 721.663 903.561C758.069 821.976 774.345 757.351 774.434 694.025C774.413 691.148 774.351 688.273 774.243 685.235C771.667 613.268 744.532 499.993 701.654 382.225C658.075 262.528 606.115 161.062 562.662 110.802C483.739 -26.9006 412.092 -5.88081 303.64 25.9264C255.533 40.0386 201.007 56.0263 134.658 62.4234C86.777 67.0273 43.9954 70.4075 6.24624 73.3896C-175.027 87.7035 -257.761 94.2303 -345.832 194.07C-366.234 218.326 -375.883 250.117 -374.508 288.539C-373.424 318.825 -365.492 353.496 -350.93 391.591C-337.59 426.144 -321.206 461.706 -303.858 499.356C-281.041 548.874 -257.445 600.075 -237.326 656.185C-213.672 722.978 -200.703 796.576 -197.675 881.19C-197.225 893.75 -196.982 906.929 -196.951 920.36C-196.939 926.396 -196.939 932.385 -196.935 938.317C-196.933 963.218 -196.93 986.739 -196.119 1009.4ZM775.258 685.193C775.367 688.246 775.431 691.137 775.456 694.036C775.367 757.6 759.049 822.415 722.551 904.206C686.251 984.757 649.441 1047.68 606.714 1102.22C544.109 1181.18 486.963 1232.67 426.867 1264.3C357.891 1299.94 273.416 1316.76 182.571 1312.95C0.81094 1303.8 -141.766 1227.7 -180.661 1119.09C-190.368 1090.52 -195.447 1056.71 -197.139 1009.45C-197.951 986.752 -197.954 963.219 -197.957 938.301C-197.956 932.369 -197.957 926.385 -197.97 920.349C-198.003 906.935 -198.245 893.775 -198.694 881.233C-201.717 796.783 -214.656 723.339 -238.254 656.695C-258.353 600.656 -281.932 549.486 -304.738 499.992C-322.097 462.323 -338.491 426.744 -351.845 392.144C-366.471 353.884 -374.437 319.042 -375.527 288.581C-376.916 249.769 -367.16 217.654 -346.526 193.119C-303.702 144.57 -261.626 116.864 -205.822 100.478C-151.642 84.5633 -85.4469 79.3373 6.16937 72.102C43.9141 69.1201 86.6959 65.7447 134.57 61.1337C200.836 54.7523 255.327 38.7686 303.399 24.6699C359.375 8.25323 403.592 -4.71976 444.928 3.34927C489.621 12.0648 526.162 44.9455 563.418 109.963C606.898 160.226 658.946 261.852 702.583 381.699C745.509 499.612 772.677 613.068 775.258 685.193Z" fill="#EDE9F7"/>
</svg>
